<svg xmlns="http://www.w3.org/2000/svg" viewBox="0 0 760 380" width="760" height="380" font-family="system-ui, -apple-system, Segoe UI, sans-serif" role="img" aria-label="Star Wars played while the US is ahead in space">
<style>.bg{fill:#fcfcfb}.ink{fill:#0b0b0b}.ink2{fill:#52514e}.mut{fill:#898781}.grid{stroke:#e1e0d9}.axis{stroke:#c3c2b7}.s0{stroke:#2a78d6;fill:#2a78d6}.t0{fill:#2a78d6}.s1{stroke:#eb6834;fill:#eb6834}.t1{fill:#eb6834}.s2{stroke:#1baf7a;fill:#1baf7a}.t2{fill:#1baf7a}svg .mark{stroke:#fcfcfb}svg .line{fill:none}svg .band{stroke:none}@media (prefers-color-scheme: dark){.bg{fill:#1a1a19}.ink{fill:#ffffff}.ink2{fill:#c3c2b7}.grid{stroke:#2c2c2a}.axis{stroke:#383835}.s0{stroke:#3987e5;fill:#3987e5}.t0{fill:#3987e5}.s1{stroke:#d95926;fill:#d95926}.t1{fill:#d95926}.s2{stroke:#199e70;fill:#199e70}.t2{fill:#199e70}svg .mark{stroke:#1a1a19}}</style>
<rect class="bg" width="760" height="380" rx="8"/>
<text class="ink" x="56" y="22" font-size="15" font-weight="600">Star Wars played while the US is ahead in space</text>
<text class="ink2" x="56" y="40" font-size="12">Share of 1,000 plays per snapshot, greedy self-play; bands are 95% intervals; space race (rare) not drawn</text>
<line class="grid" x1="56" x2="610" y1="336.0" y2="336.0" stroke-width="1"/>
<text class="mut" x="48" y="340.0" font-size="11" text-anchor="end">0%</text>
<line class="grid" x1="56" x2="610" y1="282.0" y2="282.0" stroke-width="1"/>
<text class="mut" x="48" y="286.0" font-size="11" text-anchor="end">20%</text>
<line class="grid" x1="56" x2="610" y1="228.0" y2="228.0" stroke-width="1"/>
<text class="mut" x="48" y="232.0" font-size="11" text-anchor="end">40%</text>
<line class="grid" x1="56" x2="610" y1="174.0" y2="174.0" stroke-width="1"/>
<text class="mut" x="48" y="178.0" font-size="11" text-anchor="end">60%</text>
<line class="grid" x1="56" x2="610" y1="120.0" y2="120.0" stroke-width="1"/>
<text class="mut" x="48" y="124.0" font-size="11" text-anchor="end">80%</text>
<line class="grid" x1="56" x2="610" y1="66.0" y2="66.0" stroke-width="1"/>
<text class="mut" x="48" y="70.0" font-size="11" text-anchor="end">100%</text>
<text class="mut" x="56.0" y="354" font-size="11" text-anchor="middle">0M</text>
<text class="mut" x="148.3" y="354" font-size="11" text-anchor="middle">200M</text>
<text class="mut" x="240.7" y="354" font-size="11" text-anchor="middle">400M</text>
<text class="mut" x="333.0" y="354" font-size="11" text-anchor="middle">600M</text>
<text class="mut" x="425.3" y="354" font-size="11" text-anchor="middle">800M</text>
<text class="mut" x="517.7" y="354" font-size="11" text-anchor="middle">1000M</text>
<text class="mut" x="610.0" y="354" font-size="11" text-anchor="middle">1200M</text>
<line class="axis" x1="56" x2="610" y1="336.0" y2="336.0" stroke-width="1"/>
<text class="mut" x="333.0" y="372" font-size="11" text-anchor="middle">training steps</text>
<line class="axis" x1="314.5" x2="314.5" y1="64" y2="336.0" stroke-width="1" stroke-dasharray="3 3"/>
<text class="mut" x="310.5" y="60" font-size="10" text-anchor="end">E7-01-44</text>
<text class="mut" x="318.5" y="60" font-size="10">E7-02-44</text>
<polygon class="s0 band" points="74.5,211.8 92.9,223.3 111.4,305.3 129.9,268.3 148.3,316.6 166.8,326.1 185.3,321.1 203.7,300.4 222.2,317.5 240.7,308.5 259.1,311.2 277.6,298.3 296.1,308.5 314.5,327.4 333.0,318.1 351.5,319.6 369.9,302.7 388.4,294.6 406.9,310.3 425.3,292.3 443.8,277.5 462.3,291.2 480.7,288.9 499.2,283.8 517.7,273.0 536.1,280.4 554.6,275.0 573.1,290.0 591.5,278.9 610.0,271.6 610.0,285.3 591.5,292.0 573.1,301.9 554.6,288.4 536.1,293.2 517.7,286.6 499.2,296.3 480.7,300.9 462.3,302.9 443.8,290.7 425.3,303.9 406.9,319.2 388.4,305.9 369.9,312.9 351.5,326.6 333.0,325.5 314.5,332.3 296.1,317.8 277.6,309.1 259.1,320.0 240.7,317.8 222.2,325.0 203.7,310.9 185.3,327.8 166.8,331.4 148.3,324.3 129.9,282.2 111.4,315.1 92.9,239.5 74.5,228.4" fill-opacity="0.14"/>
<polyline class="s0 line" points="74.5,220.2 92.9,231.5 111.4,310.6 129.9,275.5 148.3,320.9 166.8,329.2 185.3,324.9 203.7,306.0 222.2,321.7 240.7,313.6 259.1,316.0 277.6,304.1 296.1,313.6 314.5,330.3 333.0,322.2 351.5,323.6 369.9,308.2 388.4,300.6 406.9,315.2 425.3,298.5 443.8,284.4 462.3,297.4 480.7,295.2 499.2,290.4 517.7,280.1 536.1,287.1 554.6,282.0 573.1,296.3 591.5,285.8 610.0,278.8" stroke-width="2" stroke-linejoin="round"/>
<circle class="s0 mark" cx="74.5" cy="220.2" r="4" style="stroke-width:1.5"/>
<circle class="s0 mark" cx="92.9" cy="231.5" r="4" style="stroke-width:1.5"/>
<circle class="s0 mark" cx="111.4" cy="310.6" r="4" style="stroke-width:1.5"/>
<circle class="s0 mark" cx="129.9" cy="275.5" r="4" style="stroke-width:1.5"/>
<circle class="s0 mark" cx="148.3" cy="320.9" r="4" style="stroke-width:1.5"/>
<circle class="s0 mark" cx="166.8" cy="329.2" r="4" style="stroke-width:1.5"/>
<circle class="s0 mark" cx="185.3" cy="324.9" r="4" style="stroke-width:1.5"/>
<circle class="s0 mark" cx="203.7" cy="306.0" r="4" style="stroke-width:1.5"/>
<circle class="s0 mark" cx="222.2" cy="321.7" r="4" style="stroke-width:1.5"/>
<circle class="s0 mark" cx="240.7" cy="313.6" r="4" style="stroke-width:1.5"/>
<circle class="s0 mark" cx="259.1" cy="316.0" r="4" style="stroke-width:1.5"/>
<circle class="s0 mark" cx="277.6" cy="304.1" r="4" style="stroke-width:1.5"/>
<circle class="s0 mark" cx="296.1" cy="313.6" r="4" style="stroke-width:1.5"/>
<circle class="s0 mark" cx="314.5" cy="330.3" r="4" style="stroke-width:1.5"/>
<circle class="s0 mark" cx="333.0" cy="322.2" r="4" style="stroke-width:1.5"/>
<circle class="s0 mark" cx="351.5" cy="323.6" r="4" style="stroke-width:1.5"/>
<circle class="s0 mark" cx="369.9" cy="308.2" r="4" style="stroke-width:1.5"/>
<circle class="s0 mark" cx="388.4" cy="300.6" r="4" style="stroke-width:1.5"/>
<circle class="s0 mark" cx="406.9" cy="315.2" r="4" style="stroke-width:1.5"/>
<circle class="s0 mark" cx="425.3" cy="298.5" r="4" style="stroke-width:1.5"/>
<circle class="s0 mark" cx="443.8" cy="284.4" r="4" style="stroke-width:1.5"/>
<circle class="s0 mark" cx="462.3" cy="297.4" r="4" style="stroke-width:1.5"/>
<circle class="s0 mark" cx="480.7" cy="295.2" r="4" style="stroke-width:1.5"/>
<circle class="s0 mark" cx="499.2" cy="290.4" r="4" style="stroke-width:1.5"/>
<circle class="s0 mark" cx="517.7" cy="280.1" r="4" style="stroke-width:1.5"/>
<circle class="s0 mark" cx="536.1" cy="287.1" r="4" style="stroke-width:1.5"/>
<circle class="s0 mark" cx="554.6" cy="282.0" r="4" style="stroke-width:1.5"/>
<circle class="s0 mark" cx="573.1" cy="296.3" r="4" style="stroke-width:1.5"/>
<circle class="s0 mark" cx="591.5" cy="285.8" r="4" style="stroke-width:1.5"/>
<circle class="s0 mark" cx="610.0" cy="278.8" r="4" style="stroke-width:1.5"/>
<polygon class="s1 band" points="74.5,207.5 92.9,183.0 111.4,93.9 129.9,126.8 148.3,89.4 166.8,76.8 185.3,84.9 203.7,98.6 222.2,89.9 240.7,97.1 259.1,90.9 277.6,94.6 296.1,96.6 314.5,78.9 333.0,92.1 351.5,81.8 369.9,94.1 388.4,99.6 406.9,94.9 425.3,104.4 443.8,126.3 462.3,104.7 480.7,107.0 499.2,116.4 517.7,116.7 536.1,111.1 554.6,119.8 573.1,102.9 591.5,116.2 610.0,125.0 610.0,139.3 591.5,129.8 573.1,115.1 554.6,133.7 536.1,124.2 517.7,130.4 499.2,130.1 480.7,119.7 462.3,117.1 443.8,140.7 425.3,116.8 406.9,106.0 388.4,111.4 369.9,105.1 351.5,90.5 333.0,102.8 314.5,86.9 296.1,108.0 277.6,105.7 259.1,101.3 240.7,108.5 222.2,100.2 203.7,110.3 185.3,94.4 166.8,84.2 148.3,99.6 129.9,141.3 111.4,104.8 92.9,199.6 74.5,224.1" fill-opacity="0.14"/>
<polyline class="s1 line" points="74.5,215.8 92.9,191.3 111.4,98.9 129.9,133.8 148.3,94.1 166.8,80.0 185.3,89.2 203.7,104.1 222.2,94.6 240.7,102.5 259.1,95.7 277.6,99.8 296.1,101.9 314.5,82.5 333.0,97.0 351.5,85.7 369.9,99.2 388.4,105.2 406.9,100.0 425.3,110.3 443.8,133.2 462.3,110.6 480.7,113.0 499.2,123.0 517.7,123.2 536.1,117.3 554.6,126.5 573.1,108.7 591.5,122.7 610.0,131.9" stroke-width="2" stroke-linejoin="round"/>
<rect class="s1 mark" x="70.9" y="212.2" width="7.2" height="7.2" rx="1" style="stroke-width:1.5"/>
<rect class="s1 mark" x="89.3" y="187.7" width="7.2" height="7.2" rx="1" style="stroke-width:1.5"/>
<rect class="s1 mark" x="107.8" y="95.3" width="7.2" height="7.2" rx="1" style="stroke-width:1.5"/>
<rect class="s1 mark" x="126.3" y="130.2" width="7.2" height="7.2" rx="1" style="stroke-width:1.5"/>
<rect class="s1 mark" x="144.7" y="90.5" width="7.2" height="7.2" rx="1" style="stroke-width:1.5"/>
<rect class="s1 mark" x="163.2" y="76.4" width="7.2" height="7.2" rx="1" style="stroke-width:1.5"/>
<rect class="s1 mark" x="181.7" y="85.6" width="7.2" height="7.2" rx="1" style="stroke-width:1.5"/>
<rect class="s1 mark" x="200.1" y="100.5" width="7.2" height="7.2" rx="1" style="stroke-width:1.5"/>
<rect class="s1 mark" x="218.6" y="91.0" width="7.2" height="7.2" rx="1" style="stroke-width:1.5"/>
<rect class="s1 mark" x="237.1" y="98.9" width="7.2" height="7.2" rx="1" style="stroke-width:1.5"/>
<rect class="s1 mark" x="255.5" y="92.1" width="7.2" height="7.2" rx="1" style="stroke-width:1.5"/>
<rect class="s1 mark" x="274.0" y="96.2" width="7.2" height="7.2" rx="1" style="stroke-width:1.5"/>
<rect class="s1 mark" x="292.5" y="98.3" width="7.2" height="7.2" rx="1" style="stroke-width:1.5"/>
<rect class="s1 mark" x="310.9" y="78.9" width="7.2" height="7.2" rx="1" style="stroke-width:1.5"/>
<rect class="s1 mark" x="329.4" y="93.5" width="7.2" height="7.2" rx="1" style="stroke-width:1.5"/>
<rect class="s1 mark" x="347.9" y="82.1" width="7.2" height="7.2" rx="1" style="stroke-width:1.5"/>
<rect class="s1 mark" x="366.3" y="95.6" width="7.2" height="7.2" rx="1" style="stroke-width:1.5"/>
<rect class="s1 mark" x="384.8" y="101.6" width="7.2" height="7.2" rx="1" style="stroke-width:1.5"/>
<rect class="s1 mark" x="403.3" y="96.4" width="7.2" height="7.2" rx="1" style="stroke-width:1.5"/>
<rect class="s1 mark" x="421.7" y="106.7" width="7.2" height="7.2" rx="1" style="stroke-width:1.5"/>
<rect class="s1 mark" x="440.2" y="129.6" width="7.2" height="7.2" rx="1" style="stroke-width:1.5"/>
<rect class="s1 mark" x="458.7" y="107.0" width="7.2" height="7.2" rx="1" style="stroke-width:1.5"/>
<rect class="s1 mark" x="477.1" y="109.4" width="7.2" height="7.2" rx="1" style="stroke-width:1.5"/>
<rect class="s1 mark" x="495.6" y="119.4" width="7.2" height="7.2" rx="1" style="stroke-width:1.5"/>
<rect class="s1 mark" x="514.1" y="119.6" width="7.2" height="7.2" rx="1" style="stroke-width:1.5"/>
<rect class="s1 mark" x="532.5" y="113.7" width="7.2" height="7.2" rx="1" style="stroke-width:1.5"/>
<rect class="s1 mark" x="551.0" y="122.9" width="7.2" height="7.2" rx="1" style="stroke-width:1.5"/>
<rect class="s1 mark" x="569.5" y="105.1" width="7.2" height="7.2" rx="1" style="stroke-width:1.5"/>
<rect class="s1 mark" x="587.9" y="119.1" width="7.2" height="7.2" rx="1" style="stroke-width:1.5"/>
<rect class="s1 mark" x="606.4" y="128.3" width="7.2" height="7.2" rx="1" style="stroke-width:1.5"/>
<polygon class="s2 band" points="74.5,304.7 92.9,314.5 111.4,332.5 129.9,329.4 148.3,321.7 166.8,328.0 185.3,322.7 203.7,327.4 222.2,318.7 240.7,318.7 259.1,326.1 277.6,333.6 296.1,319.9 314.5,327.1 333.0,315.1 351.5,327.4 369.9,330.0 388.4,333.2 406.9,322.3 425.3,330.7 443.8,320.8 462.3,328.0 480.7,330.7 499.2,325.8 517.7,333.6 536.1,333.2 554.6,330.7 573.1,332.9 591.5,327.4 610.0,325.2 610.0,330.8 591.5,332.3 573.1,335.4 554.6,334.3 536.1,335.6 517.7,335.7 499.2,331.2 480.7,334.3 462.3,332.7 443.8,327.6 425.3,334.3 406.9,328.7 388.4,335.6 369.9,333.9 351.5,332.3 333.0,323.1 314.5,332.1 296.1,326.9 277.6,335.7 259.1,331.4 240.7,325.9 222.2,325.9 203.7,332.3 185.3,328.9 166.8,332.7 148.3,328.3 129.9,333.5 111.4,335.3 92.9,322.6 74.5,314.6" fill-opacity="0.14"/>
<polyline class="s2 line" points="74.5,310.1 92.9,319.0 111.4,334.4 129.9,331.9 148.3,325.5 166.8,330.9 185.3,326.3 203.7,330.3 222.2,322.8 240.7,322.8 259.1,329.2 277.6,335.2 296.1,323.8 314.5,330.1 333.0,319.5 351.5,330.3 369.9,332.5 388.4,334.9 406.9,326.0 425.3,333.0 443.8,324.7 462.3,330.9 480.7,333.0 499.2,329.0 517.7,335.2 536.1,334.9 554.6,333.0 573.1,334.6 591.5,330.3 610.0,328.4" stroke-width="2" stroke-linejoin="round"/>
<polygon class="s2 mark" points="74.5,305.3 79.1,313.5 69.9,313.5" style="stroke-width:1.5"/>
<polygon class="s2 mark" points="92.9,314.2 97.5,322.4 88.3,322.4" style="stroke-width:1.5"/>
<polygon class="s2 mark" points="111.4,329.6 116.0,337.8 106.8,337.8" style="stroke-width:1.5"/>
<polygon class="s2 mark" points="129.9,327.1 134.5,335.3 125.3,335.3" style="stroke-width:1.5"/>
<polygon class="s2 mark" points="148.3,320.7 152.9,328.9 143.7,328.9" style="stroke-width:1.5"/>
<polygon class="s2 mark" points="166.8,326.1 171.4,334.3 162.2,334.3" style="stroke-width:1.5"/>
<polygon class="s2 mark" points="185.3,321.5 189.9,329.7 180.7,329.7" style="stroke-width:1.5"/>
<polygon class="s2 mark" points="203.7,325.5 208.3,333.7 199.1,333.7" style="stroke-width:1.5"/>
<polygon class="s2 mark" points="222.2,318.0 226.8,326.2 217.6,326.2" style="stroke-width:1.5"/>
<polygon class="s2 mark" points="240.7,318.0 245.3,326.2 236.1,326.2" style="stroke-width:1.5"/>
<polygon class="s2 mark" points="259.1,324.4 263.7,332.6 254.5,332.6" style="stroke-width:1.5"/>
<polygon class="s2 mark" points="277.6,330.4 282.2,338.6 273.0,338.6" style="stroke-width:1.5"/>
<polygon class="s2 mark" points="296.1,319.0 300.7,327.2 291.5,327.2" style="stroke-width:1.5"/>
<polygon class="s2 mark" points="314.5,325.3 319.1,333.5 309.9,333.5" style="stroke-width:1.5"/>
<polygon class="s2 mark" points="333.0,314.7 337.6,322.9 328.4,322.9" style="stroke-width:1.5"/>
<polygon class="s2 mark" points="351.5,325.5 356.1,333.7 346.9,333.7" style="stroke-width:1.5"/>
<polygon class="s2 mark" points="369.9,327.7 374.5,335.9 365.3,335.9" style="stroke-width:1.5"/>
<polygon class="s2 mark" points="388.4,330.1 393.0,338.3 383.8,338.3" style="stroke-width:1.5"/>
<polygon class="s2 mark" points="406.9,321.2 411.5,329.4 402.3,329.4" style="stroke-width:1.5"/>
<polygon class="s2 mark" points="425.3,328.2 429.9,336.4 420.7,336.4" style="stroke-width:1.5"/>
<polygon class="s2 mark" points="443.8,319.9 448.4,328.1 439.2,328.1" style="stroke-width:1.5"/>
<polygon class="s2 mark" points="462.3,326.1 466.9,334.3 457.7,334.3" style="stroke-width:1.5"/>
<polygon class="s2 mark" points="480.7,328.2 485.3,336.4 476.1,336.4" style="stroke-width:1.5"/>
<polygon class="s2 mark" points="499.2,324.2 503.8,332.4 494.6,332.4" style="stroke-width:1.5"/>
<polygon class="s2 mark" points="517.7,330.4 522.3,338.6 513.1,338.6" style="stroke-width:1.5"/>
<polygon class="s2 mark" points="536.1,330.1 540.7,338.3 531.5,338.3" style="stroke-width:1.5"/>
<polygon class="s2 mark" points="554.6,328.2 559.2,336.4 550.0,336.4" style="stroke-width:1.5"/>
<polygon class="s2 mark" points="573.1,329.8 577.7,338.0 568.5,338.0" style="stroke-width:1.5"/>
<polygon class="s2 mark" points="591.5,325.5 596.1,333.7 586.9,333.7" style="stroke-width:1.5"/>
<polygon class="s2 mark" points="610.0,323.6 614.6,331.8 605.4,331.8" style="stroke-width:1.5"/>
<text class="t1" x="620" y="135.9" font-size="12" font-weight="600">Ops in a round 76%</text>
<text class="t0" x="620" y="282.8" font-size="12" font-weight="600">headline 21%</text>
<text class="t2" x="620" y="332.4" font-size="12" font-weight="600">event in a round 3%</text>
</svg>
